<?xml version="1.0" encoding="iso-8859-1"?>
<!-- Generator: Adobe Illustrator 19.0.0, SVG Export Plug-In . SVG Version: 6.00 Build 0)  -->
<svg version="1.1" id="Capa_1" xmlns="http://www.w3.org/2000/svg" xmlns:xlink="http://www.w3.org/1999/xlink" x="0px" y="0px"
	 viewBox="0 0 402.772 402.772" style="enable-background:new 0 0 402.772 402.772;" xml:space="preserve">
<path style="fill:#FFFFFF;" d="M373.086,341.332H56.991c-8.854,0-16.032,7.178-16.032,16.032v22.55
	c0,8.854,7.178,16.032,16.032,16.032h316.097c8.854,0,16.032-7.178,16.032-16.032v-22.55
	C389.119,348.511,381.941,341.332,373.086,341.332z"/>
<path style="fill:#602F75;" d="M373.085,402.772H56.993c-12.607,0-22.861-10.254-22.861-22.861v-22.547
	c0-12.605,10.254-22.859,22.861-22.859h316.093c12.607,0,22.861,10.254,22.861,22.861v22.547
	C395.945,392.519,385.692,402.772,373.085,402.772z M56.993,348.159c-5.077,0-9.207,4.134-9.207,9.207v22.547
	c0,5.074,4.13,9.207,9.207,9.207h316.093c5.077,0,9.207-4.134,9.207-9.207v-22.547c0-5.074-4.13-9.207-9.207-9.207H56.993z"/>
<path style="fill:#EA3457;" d="M345.78,286.719H29.685c-8.854,0-16.032,7.178-16.032,16.032v22.55
	c0,8.854,7.178,16.032,16.032,16.032h316.097c8.854,0,16.032-7.178,16.032-16.032v-22.55
	C361.812,293.897,354.634,286.719,345.78,286.719z"/>
<path style="fill:#602F75;" d="M345.778,348.159H29.686c-12.607,0-22.861-10.254-22.861-22.861v-22.547
	c0-12.605,10.254-22.859,22.861-22.859H345.78c12.607,0,22.861,10.254,22.861,22.861V325.3
	C368.639,337.906,358.385,348.159,345.778,348.159z M29.686,293.546c-5.077,0-9.207,4.134-9.207,9.207V325.3
	c0,5.074,4.13,9.207,9.207,9.207H345.78c5.077,0,9.207-4.134,9.207-9.207v-22.547c0-5.074-4.13-9.207-9.207-9.207H29.686z"/>
<path style="fill:#FFFFFF;" d="M373.086,204.799H56.991c-8.854,0-16.032,7.178-16.032,16.032v49.857
	c0,8.854,7.178,16.032,16.032,16.032h316.097c8.854,0,16.032-7.178,16.032-16.032v-49.857
	C389.119,211.977,381.941,204.799,373.086,204.799z"/>
<path style="fill:#602F75;" d="M373.085,293.546H56.993c-12.607,0-22.861-10.254-22.861-22.861v-49.853
	c0-12.605,10.254-22.859,22.861-22.859h316.093c12.607,0,22.861,10.254,22.861,22.861v49.853
	C395.945,283.292,385.692,293.546,373.085,293.546z M56.993,211.626c-5.077,0-9.207,4.134-9.207,9.207v49.853
	c0,5.074,4.13,9.207,9.207,9.207h316.093c5.077,0,9.207-4.134,9.207-9.207v-49.853c0-5.074-4.13-9.207-9.207-9.207H56.993z"/>
<path style="fill:#FFFFFF;" d="M345.78,170.666H56.991c-8.854,0-16.032,7.178-16.032,16.032v2.07
	c0,8.854,7.178,16.032,16.032,16.032h288.79c8.854,0,16.032-7.178,16.032-16.032v-2.07
	C361.812,177.844,354.634,170.666,345.78,170.666z"/>
<g>
	<path style="fill:#602F75;" d="M345.778,211.626H56.993c-12.607,0-22.861-10.254-22.861-22.861v-2.067
		c0-12.605,10.254-22.859,22.861-22.859H345.78c12.607,0,22.861,10.254,22.861,22.861v2.067
		C368.639,201.372,358.385,211.626,345.778,211.626z M56.993,177.492c-5.077,0-9.207,4.134-9.207,9.207v2.067
		c0,5.074,4.13,9.207,9.207,9.207H345.78c5.077,0,9.207-4.134,9.207-9.207V186.7c0-5.074-4.13-9.207-9.207-9.207H56.993z"/>
	<path style="fill:#602F75;" d="M232.105,286.719c-3.77,0-6.827-3.053-6.827-6.827v-68.267c0-3.773,3.057-6.827,6.827-6.827
		c3.77,0,6.827,3.053,6.827,6.827v68.267C238.932,283.666,235.875,286.719,232.105,286.719z"/>
</g>
<path style="fill:#FFFFFF;" d="M232.105,320.852H116.052c-3.77,0-6.827-3.053-6.827-6.827s3.057-6.827,6.827-6.827h116.053
	c3.77,0,6.827,3.053,6.827,6.827S235.875,320.852,232.105,320.852z"/>
<g>
	<path style="fill:#602F75;" d="M163.839,402.772c-3.77,0-6.827-3.053-6.827-6.827v-47.787c0-3.773,3.057-6.827,6.827-6.827
		c3.77,0,6.827,3.053,6.827,6.827v47.787C170.665,399.719,167.609,402.772,163.839,402.772z"/>
	<path style="fill:#602F75;" d="M197.972,402.772c-3.77,0-6.827-3.053-6.827-6.827v-54.613c0-3.773,3.057-6.827,6.827-6.827
		c3.77,0,6.827,3.053,6.827,6.827v54.613C204.799,399.719,201.742,402.772,197.972,402.772z"/>
	<path style="fill:#602F75;" d="M150.185,204.799c-3.77,0-6.827-3.053-6.827-6.827v-27.307c0-3.773,3.057-6.827,6.827-6.827
		s6.827,3.053,6.827,6.827v27.307C157.012,201.746,153.955,204.799,150.185,204.799z"/>
</g>
<polygon style="fill:#00E7FF;" points="157.012,266.239 126.292,245.759 95.572,266.239 95.572,204.799 157.012,204.799 "/>
<path style="fill:#602F75;" d="M157.012,273.066c-1.323,0-2.644-0.387-3.787-1.147l-26.933-17.952l-26.933,17.954
	c-2.097,1.393-4.799,1.521-7.006,0.34c-2.222-1.188-3.608-3.5-3.608-6.021v-61.44c0-3.773,3.057-6.827,6.827-6.827h61.44
	c3.77,0,6.827,3.053,6.827,6.827v61.44c0,2.521-1.386,4.833-3.606,6.019C159.226,272.8,158.115,273.066,157.012,273.066z
	 M126.292,238.932c1.319,0,2.64,0.381,3.787,1.147l20.106,13.406v-41.859h-47.787v41.859l20.106-13.406
	C123.652,239.313,124.973,238.932,126.292,238.932z"/>
<path style="fill:#EA3457;" d="M218.452,170.666c37.702,0,68.267-44.218,68.267-81.92c0-68.267-68.267-47.787-68.267-47.787
	s-68.267-20.48-68.267,47.787C150.185,126.448,180.75,170.666,218.452,170.666"/>
<path style="fill:#602F75;" d="M218.452,177.492c-42.289,0-75.093-47.706-75.093-88.747c0-21.907,6.589-37.914,19.591-47.587
	c19.85-14.766,47.843-9.194,55.503-7.267c7.663-1.934,35.651-7.501,55.503,7.267c13.001,9.673,19.591,25.68,19.591,47.587
	C293.545,129.786,260.742,177.492,218.452,177.492z M196.779,44.905c-8.477,0-18.154,1.587-25.719,7.24
	c-9.32,6.961-14.048,19.275-14.048,36.601c0,34.014,27.407,75.093,61.44,75.093s61.44-41.079,61.44-75.093
	c0-17.353-4.739-29.681-14.087-36.634c-17.27-12.846-45.114-4.7-45.394-4.613c-1.273,0.374-2.637,0.387-3.91,0
	C216.346,47.453,207.526,44.905,196.779,44.905z"/>
<path style="fill:#FFFFFF;" d="M225.279,6.826c0,0-6.827,6.827-6.827,34.133"/>
<path style="fill:#602F75;" d="M218.452,47.786c-3.77,0-6.827-3.053-6.827-6.827c0-28.681,7.354-37.487,8.827-38.96
	c2.666-2.666,6.987-2.666,9.653,0c2.584,2.58,2.664,6.721,0.244,9.4c-0.391,0.539-5.071,7.499-5.071,29.559
	C225.279,44.733,222.222,47.786,218.452,47.786z"/>
<g>
</g>
<g>
</g>
<g>
</g>
<g>
</g>
<g>
</g>
<g>
</g>
<g>
</g>
<g>
</g>
<g>
</g>
<g>
</g>
<g>
</g>
<g>
</g>
<g>
</g>
<g>
</g>
<g>
</g>
</svg>
